<svg width="346" height="237" viewBox="0 0 346 237" fill="none" xmlns="http://www.w3.org/2000/svg">
<g filter="url(#filter0_d_382_47)">
<path d="M100.687 104.675C92.7345 127.98 77.16 150.626 75.6154 153.644C71.0023 162.657 59.6654 166.84 47.852 163.886C46.5644 163.564 36.0922 158.658 24.532 152.961C2.24601 141.979 2.3454 142.016 2.34953 144.744C2.35493 148.3 5.02607 150.313 17.2134 155.945C21.461 157.908 28.3557 161.089 32.5341 163.015C41.6651 167.223 45.5671 169.373 49.93 172.595C56.5475 177.484 71.2731 185.619 81.5063 190.042C87.3678 192.576 94.0167 194.855 98.0726 195.722C99.634 196.056 101.848 196.269 102.994 196.195C104.719 196.084 105.29 195.835 106.306 194.749C107.45 193.527 107.521 193.257 107.358 190.774C107.141 187.445 105.449 184.122 100.419 177.142C98.4656 174.431 96.8671 172.162 96.8674 172.102C96.8675 172.09 97.1408 172.077 97.4838 172.063L103.166 176.573C115.996 186.754 117.404 188.023 118.661 190.543C120.484 194.199 119.799 197.103 116.329 200.422C113.548 203.083 110.587 204.752 105.419 206.579C96.1903 209.842 94.2151 212.34 92.8858 222.422C92.515 225.234 91.873 228.584 91.4602 229.865L90.7102 232.194L94.9944 231.93C97.3504 231.784 99.3511 231.604 99.4415 231.529C99.5319 231.454 99.3806 229.507 99.1055 227.202C98.3741 221.077 99.1414 218.346 102.374 215.559C104.167 214.014 106.85 212.589 110.338 211.328C111.498 210.909 116.185 208.6 120.754 206.198C128.313 202.223 129.228 201.624 130.905 199.552C133.204 196.713 133.597 195.732 133.593 192.831C133.59 190.904 133.343 190.129 132.115 188.185C131.304 186.902 129.664 184.775 128.469 183.458C127.273 182.142 126.419 180.949 126.569 180.805C127.035 180.36 143.089 181.512 145.333 182.151C149.744 183.408 151.481 186.906 150.224 191.999C149.869 193.438 149.424 197.966 149.235 202.061C149.045 206.157 148.767 211.319 148.616 213.532C148.37 217.137 148.429 217.69 149.185 218.835C150.365 220.62 153.246 222.112 156.894 222.828C158.602 223.163 163.766 224.635 168.37 226.099C172.974 227.562 176.883 228.603 177.055 228.412C177.228 228.222 177.87 226.929 178.483 225.539L179.598 223.013L178.656 222.665C178.138 222.473 175.785 221.569 173.429 220.657C171.073 219.744 168.672 218.996 168.093 218.996C165.803 218.992 161.371 217.32 159.692 215.825C156.744 213.199 156.826 210.232 160.012 204.23L161.967 200.55L161.787 196.747C161.62 193.223 161.466 192.669 159.683 189.157C155.764 181.961 151.61 179.453 158.553 172.282C167.188 164.545 199.093 174.518 211.741 173.402C252.364 172.146 256.63 146.882 280.369 168.755C283.525 171.401 290.081 176.568 294.938 180.239C299.795 183.91 304.697 187.947 305.832 189.209C308.545 192.226 314.651 197.054 317.994 198.825C322.903 201.426 324.167 201.609 333.735 201.104C338.374 200.86 342.293 200.542 342.443 200.398C342.594 200.255 342.786 198.855 342.871 197.286L343.025 194.433L334.465 193.382C324.889 192.205 323.277 191.687 320.29 188.837C319.293 187.885 317.801 185.887 316.976 184.397C315.627 181.963 314.073 180.45 301.586 169.411L287.696 157.13L277.559 152.349C271.983 149.719 266.223 147.18 264.758 146.707C252.141 145.643 266.265 137.006 274.797 133.797C291.337 122.781 289.484 117.331 275.64 103.593C264.088 88.7156 278.031 87.9842 288.522 80.2367C289.171 79.178 286.472 70.958 287.089 68.2671C285.819 58.1145 304.324 56.1831 304.935 54.6122C305.122 49.0277 295.349 35.4724 286.886 26.7161C280.804 20.4227 259.274 6.18938 259.274 6.18938C247.776 -0.388968 238.95 0.848437 238.95 0.848437C169.859 0.530768 122.295 47.1223 100.687 104.675Z" fill="url(#paint0_linear_382_47)"/>
</g>
<g filter="url(#filter1_i_382_47)">
<path fill-rule="evenodd" clip-rule="evenodd" d="M187.827 56.2474C183.783 65.1248 171.177 64.2231 168.777 70.0231C164.504 80.3487 158.21 66.4327 160.732 58.4257C169.754 38.7249 198.869 29.5958 187.827 56.2474Z" fill="white"/>
</g>
<defs>
<filter id="filter0_d_382_47" x="0.349365" y="0.755859" width="344.676" height="235.438" filterUnits="userSpaceOnUse" color-interpolation-filters="sRGB">
<feFlood flood-opacity="0" result="BackgroundImageFix"/>
<feColorMatrix in="SourceAlpha" type="matrix" values="0 0 0 0 0 0 0 0 0 0 0 0 0 0 0 0 0 0 127 0" result="hardAlpha"/>
<feOffset dy="2"/>
<feGaussianBlur stdDeviation="1"/>
<feComposite in2="hardAlpha" operator="out"/>
<feColorMatrix type="matrix" values="0 0 0 0 0.423529 0 0 0 0 0.458824 0 0 0 0 0.490196 0 0 0 0.37 0"/>
<feBlend mode="normal" in2="BackgroundImageFix" result="effect1_dropShadow_382_47"/>
<feBlend mode="normal" in="SourceGraphic" in2="effect1_dropShadow_382_47" result="shape"/>
</filter>
<filter id="filter1_i_382_47" x="159.654" y="39.7012" width="30.6379" height="33.9922" filterUnits="userSpaceOnUse" color-interpolation-filters="sRGB">
<feFlood flood-opacity="0" result="BackgroundImageFix"/>
<feBlend mode="normal" in="SourceGraphic" in2="BackgroundImageFix" result="shape"/>
<feColorMatrix in="SourceAlpha" type="matrix" values="0 0 0 0 0 0 0 0 0 0 0 0 0 0 0 0 0 0 127 0" result="hardAlpha"/>
<feOffset dx="-0.5"/>
<feGaussianBlur stdDeviation="1"/>
<feComposite in2="hardAlpha" operator="arithmetic" k2="-1" k3="1"/>
<feColorMatrix type="matrix" values="0 0 0 0 0.423529 0 0 0 0 0.458824 0 0 0 0 0.490196 0 0 0 1 0"/>
<feBlend mode="normal" in2="shape" result="effect1_innerShadow_382_47"/>
</filter>
<linearGradient id="paint0_linear_382_47" x1="101.156" y1="195.111" x2="259.533" y2="12.8818" gradientUnits="userSpaceOnUse">
<stop stop-color="#008A8C"/>
<stop offset="0.128577" stop-color="#087F87"/>
<stop offset="0.229559" stop-color="#107582"/>
<stop offset="0.348324" stop-color="#1D6578"/>
<stop offset="0.46692" stop-color="#285770"/>
<stop offset="0.585893" stop-color="#33496B"/>
<stop offset="0.688818" stop-color="#3E3D66"/>
<stop offset="0.787039" stop-color="#4D366B"/>
<stop offset="0.889418" stop-color="#60306E"/>
<stop offset="1" stop-color="#732573"/>
</linearGradient>
</defs>
</svg>
